<?xml version="1.0" encoding="utf-8"?><!DOCTYPE svg PUBLIC "-//W3C//DTD SVG 1.1//EN" "http://www.w3.org/Graphics/SVG/1.1/DTD/svg11.dtd"><svg version="1.1" id="Contours" xmlns="http://www.w3.org/2000/svg" xmlns:xlink="http://www.w3.org/1999/xlink" x="0px" y="0px" width="2038.186279px" height="2038.186279px" viewBox="0.000000 -0.000000 2038.186279 1850.185547" enable-background="new 0 0 2038.186279 2038.186279" xml:space="preserve" stroke="black" fill="none" stroke-linecap='round' stroke-linejoin='round'><path class="selected"  fill="#000000" opacity="1.000000" stroke="none" 
 	d="
M0.093545 633.092713 C0.093545 423.259369 0.105252 213.926041 0.000003 4.592760 C-0.001882 0.843481 0.844548 -0.000534 4.593558 0.000000 C680.926858 0.096347 1357.260171 0.096347 2033.593545 0.000000 C2037.342568 -0.000534 2038.186928 0.843706 2038.186318 4.592727 C2038.089516 618.259400 2038.089394 1231.926087 2038.186196 1845.592713 C2038.186806 1849.341736 2037.342568 1850.185975 2033.593545 1850.185364 C1357.260171 1850.089051 680.926858 1850.089051 4.593558 1850.185486 C0.844549 1850.185975 -0.000342 1849.341736 0.000577 1845.592713 C0.099626 1441.592713 0.093545 1037.592713 0.093545 633.092713 M1077.093545 999.592713 C1077.760293 997.802552 1079.173623 995.923035 1078.971841 994.236756 C1077.706216 983.657349 1083.395791 974.608765 1085.105874 964.710999 C1085.694009 961.307068 1086.249184 957.880921 1087.134560 954.548646 C1088.525307 949.314515 1090.174111 944.148621 1091.730385 938.958924 C1093.508462 933.030152 1095.941567 927.209351 1096.914712 921.152772 C1097.889199 915.086915 1102.127480 907.113648 1106.826943 905.953675 C1108.463051 905.549866 1110.639687 906.667115 1112.011025 905.978211 C1117.312295 903.314759 1119.685708 906.610108 1122.113076 910.276063 C1122.736123 911.216919 1123.737466 911.912720 1124.331582 912.866456 C1128.619301 919.748169 1133.122109 926.516358 1137.014931 933.617615 C1140.790444 940.504822 1143.185830 948.235718 1147.507241 954.715821 C1153.780068 964.122132 1160.811318 973.115235 1168.299477 981.595276 C1177.691201 992.231080 1186.464028 1003.716736 1199.677285 1010.264893 C1200.375893 1010.611085 1200.549477 1011.897828 1201.136391 1012.606995 C1206.176430 1018.696900 1210.644448 1025.434266 1216.463784 1030.665223 C1225.553017 1038.835389 1236.436318 1044.543030 1247.298989 1050.169617 C1253.647134 1053.457947 1260.307290 1056.723084 1265.549111 1061.423524 C1272.298623 1067.475892 1279.971596 1071.483338 1288.023110 1074.997132 C1291.682168 1076.594056 1295.905434 1076.857606 1299.664590 1078.277405 C1303.688271 1079.797059 1307.463540 1081.972474 1311.352944 1083.849915 C1318.436074 1087.268738 1325.271035 1091.424744 1332.665200 1093.926209 C1345.256997 1098.185975 1358.293252 1101.079285 1371.707070 1100.991761 C1376.268227 1100.962098 1381.186684 1098.339173 1385.300332 1099.396912 C1393.175088 1101.421570 1400.115151 1098.791688 1407.308388 1097.255555 C1411.339150 1096.394593 1415.201943 1094.635682 1419.050332 1093.061097 C1423.609902 1091.195496 1428.202431 1089.330994 1432.516884 1086.981751 C1434.382729 1085.965760 1435.578896 1083.728455 1437.095986 1082.061219 C1438.612221 1080.395325 1439.906655 1078.386536 1441.725991 1077.165467 C1445.943276 1074.334900 1450.762368 1072.291932 1451.199380 1066.123963 C1451.297158 1064.745545 1452.487099 1063.195862 1453.591836 1062.178528 C1460.069375 1056.213074 1460.387368 1047.890931 1462.008217 1040.156312 C1463.252846 1034.217225 1461.471841 1028.674378 1457.523476 1024.082093 C1451.993447 1017.650025 1446.257485 1011.394471 1440.579507 1005.090455 C1437.551308 1001.728455 1434.964883 997.659119 1431.300942 995.237732 C1420.801552 988.298829 1410.740029 980.892090 1401.076821 972.806336 C1393.975503 966.864014 1385.936684 962.034607 1378.263711 956.785096 C1372.529702 952.862122 1365.708047 950.558777 1361.170205 944.816956 C1359.990151 943.323853 1357.826821 942.580262 1356.065835 941.578797 C1349.189370 937.668213 1342.341958 933.702149 1335.384438 929.940308 C1331.729653 927.964173 1327.158242 927.131714 1324.258462 924.432068 C1319.178628 919.702881 1314.114907 916.185792 1306.936928 915.208680 C1301.203042 914.428101 1295.614052 912.118714 1290.141640 910.016968 C1285.262368 908.143067 1280.762856 905.262879 1275.860512 903.470154 C1267.610024 900.453370 1260.620522 894.614625 1251.259560 893.870972 C1244.858315 893.362610 1238.376382 891.368653 1232.377236 888.936646 C1225.072793 885.975464 1217.445229 883.905335 1210.022866 885.353821 C1198.305947 887.640442 1187.349892 884.692933 1176.637002 881.755311 C1168.317910 879.474122 1160.105385 878.637940 1151.701577 878.108216 C1145.178139 877.697144 1138.644814 877.444581 1132.119057 877.067505 C1131.370278 877.024232 1130.528237 876.796998 1129.920571 876.377991 C1121.030312 870.248719 1118.478921 856.213868 1123.811562 846.659485 C1126.023965 842.695618 1126.637978 837.856263 1128.110879 833.459351 C1130.315591 826.878296 1131.968056 819.981080 1135.183755 813.923524 C1136.853554 810.778016 1137.581093 808.421204 1136.028359 805.633423 C1134.220986 802.388611 1135.130410 801.268067 1138.551675 801.065919 C1142.214760 800.849427 1143.983681 798.860779 1144.161050 795.086304 C1144.285805 792.432862 1144.701943 789.688477 1145.588296 787.198304 C1147.186074 782.708924 1149.247353 778.385377 1151.087319 773.981019 C1151.858803 772.134156 1152.294350 770.092652 1153.335122 768.421509 C1159.638955 758.300171 1165.262490 747.966431 1166.186806 735.705811 C1166.303994 734.152405 1167.669106 732.681458 1168.497719 731.195557 C1171.169961 726.403199 1176.377236 727.676087 1180.450356 726.266419 C1190.956093 722.630555 1201.278115 718.295716 1212.916421 719.927430 C1215.435586 720.280701 1218.259682 718.573060 1220.924355 717.753113 C1229.092324 715.239808 1236.561318 710.549622 1245.670815 710.912659 C1249.229409 711.054444 1252.870156 709.179505 1256.470864 708.213807 C1261.158852 706.956605 1265.381142 703.702088 1270.684487 705.064271 C1272.667763 705.573609 1275.010171 706.544922 1276.711587 705.947083 C1282.072671 704.063050 1287.318154 701.754212 1292.398720 699.193970 C1297.392983 696.677247 1301.427773 692.333436 1307.894814 692.869935 C1309.847817 693.031922 1312.158974 690.714234 1314.066811 689.225770 C1319.087929 685.308411 1323.232705 679.840882 1330.834389 680.989564 C1332.173867 681.192078 1333.974282 680.368470 1335.120766 679.461243 C1339.309365 676.146973 1342.040810 670.928101 1348.906289 671.558411 C1351.737710 671.818360 1354.587441 669.705262 1356.380288 666.192994 C1357.612588 663.778687 1361.486733 662.628052 1364.300210 661.139893 C1365.778725 660.357850 1367.600136 660.240296 1369.118081 659.512696 C1372.045083 658.109559 1374.887490 656.523682 1377.724282 654.940613 C1379.492715 653.953736 1382.081338 653.218018 1382.735879 651.696107 C1384.311562 648.031373 1387.402627 647.893555 1390.384438 647.075745 C1392.918374 646.380860 1396.244179 646.295655 1397.766884 644.620362 C1402.257485 639.679688 1408.685464 639.351502 1414.016762 636.559266 C1416.257607 635.385621 1418.416543 633.690430 1420.019326 631.743836 C1422.834511 628.324708 1425.071572 625.031495 1430.137978 623.872437 C1437.821328 622.114930 1440.093545 618.713196 1440.093545 612.691102 C1440.093545 605.257996 1440.925332 604.471680 1448.130532 605.092713 C1452.549355 605.473572 1459.218911 600.173035 1461.154092 595.100403 C1461.973794 592.951844 1463.114297 590.716309 1464.705239 589.111390 C1469.191323 584.585633 1475.109048 581.068177 1478.373574 575.847291 C1482.385659 569.431214 1487.905068 565.166627 1493.068520 560.097046 C1499.405434 553.875733 1504.209878 545.943543 1508.924355 538.287659 C1511.032998 534.863160 1511.024331 530.203431 1512.487099 526.295411 C1514.427773 521.110901 1516.927407 516.138306 1519.076943 511.028443 C1521.285927 505.777466 1523.379800 500.477753 1525.489419 495.185608 C1526.402016 492.896363 1528.103310 490.506898 1527.935830 488.276368 C1527.339028 480.327332 1527.050332 472.144837 1524.822182 464.588288 C1522.627846 457.145936 1518.312417 450.308961 1514.745400 443.299134 C1512.706216 439.291749 1511.182412 434.347931 1507.898965 431.774781 C1498.196938 424.171174 1486.298012 421.577698 1474.305581 420.196168 C1466.835610 419.335572 1459.997842 423.648408 1451.917153 422.504487 C1441.808144 421.073365 1431.709634 424.477753 1422.369057 429.077820 C1419.468423 430.506348 1416.573891 432.044404 1413.516152 433.038514 C1404.838051 435.859833 1395.734414 437.645081 1387.433633 441.286408 C1376.561440 446.055695 1364.879800 449.917573 1357.294717 460.225403 C1355.996499 461.989594 1353.529214 463.737397 1351.448647 463.943238 C1339.052041 465.169648 1332.176186 474.598969 1323.826089 481.862549 C1321.149087 484.191224 1318.620522 486.716279 1315.786172 488.833039 C1310.091225 493.086335 1304.571816 497.770875 1298.328408 501.028870 C1293.751259 503.417328 1290.384194 506.253663 1287.961220 510.638367 C1287.264199 511.899842 1285.919106 512.814942 1284.831338 513.846863 C1278.654092 519.707093 1272.204995 525.308350 1266.356484 531.479432 C1261.044106 537.084839 1256.668496 543.581605 1251.324135 549.152283 C1248.076333 552.537537 1243.363076 554.500672 1240.037636 557.831055 C1234.287392 563.589722 1228.597939 569.550232 1223.860879 576.130128 C1220.676552 580.553101 1215.454384 584.131104 1215.883584 590.871277 C1215.978554 592.363526 1213.589150 594.224183 1212.040688 595.565308 C1209.146523 598.071900 1205.380898 599.825684 1203.129311 602.772461 C1196.427041 611.543885 1187.842934 618.414857 1183.369057 629.550049 C1178.614785 641.383179 1170.199135 651.999390 1162.174599 662.196656 C1153.250405 673.537171 1145.265298 685.080140 1141.357827 699.156190 C1140.920449 700.732239 1138.802895 702.574524 1137.160439 702.945069 C1132.363930 704.026978 1127.420815 704.490296 1122.521157 705.078614 C1113.775063 706.128724 1104.916909 706.590821 1096.315713 708.334900 C1092.780190 709.051758 1089.649331 710.740357 1085.989785 709.138428 C1085.304604 708.838502 1084.324868 708.987305 1083.540078 709.175171 C1078.240395 710.443909 1072.896157 711.579529 1067.686196 713.154358 C1063.339150 714.468262 1060.213174 713.339722 1058.765298 709.171753 C1056.836587 703.618958 1055.834878 697.718873 1053.636025 692.291627 C1050.920083 685.587830 1046.935464 679.391541 1044.305703 672.660828 C1040.211342 662.181458 1036.459634 651.538086 1033.213540 640.768067 C1031.095498 633.740662 1030.754189 626.165406 1028.514931 619.189393 C1024.135659 605.546143 1018.722756 592.236878 1014.242592 578.623169 C1011.093911 569.055176 1009.149026 559.089295 1005.959817 549.537049 C1003.940713 543.489564 1001.631936 537.729737 1002.016030 531.145630 C1002.377846 524.943177 1002.417214 518.680665 1001.990029 512.486573 C1001.655495 507.637177 1000.923196 502.672852 999.382363 498.090912 C997.972756 493.899262 994.264077 490.371583 993.317544 486.158356 C991.812051 479.456574 991.347085 472.438141 991.181863 465.535920 C990.863930 452.257905 987.553567 439.738801 982.998208 427.396393 C981.614419 423.646973 978.778420 420.085755 980.960366 415.448365 C981.732522 413.807343 981.622292 411.122834 980.798501 409.471772 C977.782693 403.427460 977.687722 398.092499 982.599770 392.898377 C983.721718 391.711976 983.855691 389.398224 984.036660 387.563141 C984.270180 385.195771 984.307534 382.764344 984.046853 380.402711 C983.577248 376.147706 983.315713 371.774262 982.082192 367.719605 C979.760964 360.089631 977.956826 352.274140 979.315896 344.509186 C980.471780 337.904938 977.737954 332.815278 975.795388 327.172059 C974.746010 324.123292 973.580300 320.491761 974.304909 317.580597 C975.985818 310.827180 971.718667 300.158051 965.494851 297.033204 C960.837502 294.694916 957.342385 297.493653 953.708657 299.269227 C952.939980 299.644837 952.979714 302.299958 953.147500 303.850709 C953.666421 308.647523 954.713113 313.399232 955.030495 318.203156 C955.589394 326.664155 956.168008 335.159516 955.987099 343.624421 C955.775613 353.524232 954.794839 363.409394 954.077065 373.295777 C953.774026 377.469727 954.556679 382.361237 952.652627 385.661103 C946.823220 395.764191 954.516274 405.644440 952.093545 415.481263 C955.492104 419.456757 953.443642 424.260712 954.142373 428.644440 C954.881753 433.282593 956.222573 437.827302 956.910744 442.470612 C957.834328 448.701783 958.876443 454.983094 958.943459 461.252808 C959.001015 466.635346 957.736001 472.028931 957.112954 477.424256 C956.980019 478.575532 957.535012 480.015931 957.024209 480.880951 C952.636025 488.312165 953.641213 496.306305 954.014809 504.353364 C954.377663 512.169495 954.220803 520.018433 954.053261 527.847840 C953.919411 534.104249 953.427895 540.353089 953.093362 546.605164 C952.697793 553.997742 952.505166 561.408570 951.846718 568.777711 C951.164651 576.412171 949.686562 583.983887 949.193154 591.624207 C948.728615 598.817750 949.343117 606.076417 949.010720 613.284546 C948.766213 618.584839 947.787026 623.853577 947.085549 629.129761 C946.456887 633.858399 944.883767 638.651856 945.273842 643.286500 C946.118020 653.315552 946.860207 663.099183 943.219460 672.861939 C941.486977 677.507691 940.655984 682.612183 940.194741 687.581055 C939.478493 695.297669 939.443398 703.076661 939.058938 710.826294 C939.031228 711.385377 938.591164 711.985047 938.207925 712.456177 C933.471474 718.279847 926.427712 719.400879 919.863015 719.834168 C912.714699 720.306031 905.444436 718.545472 898.205971 718.158814 C892.166299 717.836304 886.093239 718.202759 880.039345 718.069031 C868.676064 717.818055 857.307961 717.588807 845.957558 717.030335 C839.383828 716.706971 832.751626 716.200989 826.321694 714.904725 C823.150368 714.265381 819.607094 712.280152 817.572854 709.802979 C811.960549 702.968567 807.042336 695.562989 801.873391 688.366150 C797.263589 681.947999 792.526894 675.613099 788.138467 669.046143 C783.804482 662.560608 780.202004 655.564576 775.622597 649.269715 C768.763589 639.841431 760.592568 631.301758 754.344277 621.513062 C747.708901 611.117859 739.498574 602.207032 731.501015 593.028870 C728.077737 589.100342 724.642678 585.159852 720.936867 581.504639 C714.143899 574.804383 707.427651 567.979615 700.160988 561.818177 C691.396340 554.386536 682.121804 547.552613 673.009865 540.535584 C667.851784 536.563416 662.585549 532.731202 657.351723 528.858094 C653.947549 526.338929 650.373757 524.027894 647.125710 521.323609 C641.987649 517.045533 637.404275 512.025330 631.967690 508.197785 C621.578347 500.883271 609.078835 498.272095 597.282937 494.267792 C591.372597 492.261414 584.849099 492.024476 578.585976 491.102479 C569.146401 489.712891 559.720193 488.151856 550.235634 487.174347 C541.844948 486.309540 533.691567 488.969971 525.455910 489.759644 C515.006020 490.761658 508.559945 496.984742 502.181191 503.603943 C494.753731 511.311341 497.082833 521.676209 496.217782 531.044312 C495.821206 535.338685 496.803078 539.753663 497.068886 544.119568 C497.154763 545.530030 496.473092 547.150696 496.955514 548.347413 C500.466561 557.057740 503.655068 565.963807 508.018593 574.242432 C511.092477 580.074219 515.819192 585.042481 519.868386 590.350159 C523.356057 594.921815 526.701882 599.630677 530.517495 603.916504 C536.325356 610.440064 542.326760 616.811341 548.553933 622.934022 C552.309731 626.626771 556.347817 630.220460 560.817544 632.941285 C564.609963 635.249878 568.866677 636.432435 570.844521 641.133729 C571.552895 642.817628 573.792275 644.111573 575.611611 645.033570 C589.516823 652.079896 603.564553 658.847840 617.415139 665.998231 C625.266946 670.051819 633.662270 673.688965 640.266823 679.325257 C645.758584 684.012024 651.914101 687.181092 658.053567 689.825257 C672.750466 696.155213 688.083596 700.995545 703.083169 706.641114 C710.572488 709.460023 717.888039 712.739625 725.292153 715.786744 C735.758645 720.094239 747.412148 720.669556 757.555459 726.017640 C757.948220 726.224610 758.528603 726.075928 759.021584 726.092713 C764.527688 726.280152 769.260171 729.374207 775.428933 728.633912 C780.436562 728.033082 785.987649 732.326783 791.879372 732.141114 C792.272927 732.128724 792.688332 732.810792 793.093545 733.169861 C792.636941 733.477479 792.176675 734.056397 791.724160 734.050355 C787.552407 733.994568 783.381692 733.842774 779.211220 733.705201 C778.523232 733.682557 777.837319 733.593934 777.150490 733.535767 C777.681557 734.104737 778.116311 734.997803 778.759621 735.189026 C782.332619 736.251160 785.955666 737.145142 789.562844 738.091858 C792.118813 738.762757 794.833779 739.087220 797.193093 740.180604 C799.980935 741.472718 802.282204 744.025696 805.139321 744.883545 C807.068764 745.462769 807.560525 745.881104 808.441750 747.713868 C811.459572 753.990174 815.116494 759.959717 818.542397 766.039063 C823.720559 775.227906 828.904397 784.413636 834.095376 793.595276 C837.149941 798.997986 839.797707 804.699586 843.425393 809.687073 C846.218056 813.526612 849.612405 816.625489 851.270425 821.492920 C854.291604 830.361939 858.577676 838.791627 861.941140 847.556092 C863.601479 851.882752 863.950783 856.718323 865.658181 861.020020 C868.401284 867.931092 874.295571 873.020508 876.420998 880.593262 C878.096474 886.562623 882.422341 891.745545 884.750710 897.603760 C885.341592 899.090516 882.806985 901.819520 881.708535 903.977723 C880.836892 902.777405 879.669106 901.691956 879.150735 900.354737 C877.756692 896.759400 877.587136 892.597901 874.092446 890.035767 C873.649819 889.711304 873.192727 889.406617 872.742409 889.092713 C872.526101 889.640748 872.025674 890.257020 872.138344 890.725953 C873.058694 894.554505 874.171731 898.337769 875.045266 902.176026 C875.302041 903.304566 874.696450 904.640198 874.990945 905.746522 C875.380288 907.208741 869.764260 910.825806 876.482827 910.198365 C876.889931 910.160401 878.013650 911.841370 877.826699 912.388856 C876.816506 915.348267 876.238259 919.895997 874.159829 920.804444 C864.294411 925.116211 854.060891 928.638306 843.815652 932.007386 C838.302102 933.820496 831.558694 933.367188 827.050698 936.418946 C820.290566 940.995301 813.398537 942.072571 805.816445 942.133912 C804.438882 942.145020 802.872048 942.368470 801.722756 943.050416 C795.686013 946.632691 789.825356 950.513672 783.763650 954.051209 C779.632668 956.461976 775.182900 958.324097 771.034096 960.707337 C764.285805 964.583619 757.700417 968.742371 750.982094 972.672242 C746.569680 975.253357 741.944741 977.479676 737.594216 980.156251 C731.724831 983.767274 726.001321 987.618714 720.263467 991.439637 C713.070656 996.229432 705.675088 1000.768616 698.865273 1006.057496 C695.322732 1008.808961 692.245766 1011.766419 687.714150 1013.074402 C675.599831 1016.571168 667.899819 1026.863099 657.687844 1033.378235 C651.163796 1037.540589 646.135781 1044.017640 640.319680 1049.328553 C634.669594 1054.487855 629.000161 1059.641053 623.103005 1064.510804 C615.645974 1070.668763 610.214577 1078.247986 606.074135 1086.894959 C603.274514 1092.741639 600.185342 1098.450989 597.451516 1104.326966 C596.614419 1106.126160 596.523049 1108.272645 596.094155 1110.261048 C595.698037 1112.097474 595.650307 1114.100892 594.856118 1115.744080 C590.939553 1123.847230 592.326821 1132.717835 596.286721 1139.108216 C603.024941 1149.982483 612.900796 1158.756409 624.992715 1164.002381 C633.743935 1167.798890 643.058999 1170.308777 651.764443 1174.194764 C666.045693 1180.569764 680.041299 1179.823182 694.337563 1174.520325 C696.834878 1173.593812 699.950661 1174.146302 702.762551 1174.316956 C704.936623 1174.448914 707.586892 1176.046937 709.144326 1175.256653 C713.569131 1173.011536 717.478860 1169.774842 721.718117 1167.131653 C724.199135 1165.584778 727.037575 1163.125184 729.514321 1163.344544 C736.105996 1163.928406 740.954629 1159.855897 746.364907 1157.826600 C758.459634 1153.290467 767.657448 1143.483338 779.817971 1138.430237 C787.782265 1135.120789 794.490822 1128.808899 801.806985 1123.909241 C804.263222 1122.264222 807.079812 1121.097230 809.346780 1119.241517 C814.706521 1114.854065 819.822060 1110.169129 825.065102 1105.637757 C826.743447 1104.187195 828.529214 1102.861756 830.235451 1101.442566 C833.565713 1098.672913 836.918008 1095.926941 840.172158 1093.069764 C841.592080 1091.822938 842.869118 1090.389954 844.080361 1088.932923 C849.311135 1082.641419 854.482949 1076.300965 859.716164 1070.011414 C860.085549 1069.567444 860.760537 1069.353211 861.323464 1069.098572 C868.903786 1065.671815 870.885781 1057.443299 875.917946 1051.801819 C880.546059 1046.613587 883.421609 1039.905823 887.577676 1034.240540 C891.952004 1028.277772 896.993203 1022.807984 901.597207 1017.006959 C902.721902 1015.589783 904.005410 1013.704651 903.970254 1012.061280 C903.797585 1003.993958 909.981484 1000.916138 915.263894 997.195252 C916.044900 996.645081 918.217202 997.018433 918.998208 997.756043 C920.304604 998.989869 921.304909 1000.756653 921.916726 1002.482483 C925.318703 1012.079041 928.999367 1021.611329 931.693398 1031.410584 C933.191994 1036.861512 937.665322 1041.821595 935.213784 1048.242615 C934.845437 1049.207215 936.153237 1050.764466 936.568459 1052.084412 C937.775429 1055.921204 938.903481 1059.782776 940.099831 1063.622986 C941.018716 1066.572327 941.937234 1069.523865 942.958718 1072.438538 C944.283608 1076.219178 947.398415 1080.270569 946.781716 1083.667786 C944.816079 1094.497132 950.919717 1103.300843 953.837746 1112.491517 C956.073037 1119.531556 957.593728 1126.862488 959.849221 1133.915345 C963.731728 1146.056580 966.057534 1158.692933 969.106728 1171.104310 C971.036599 1178.959412 973.096108 1186.782532 975.092873 1194.621155 C977.860451 1205.485901 975.483010 1217.052308 980.768288 1227.794251 C983.320168 1232.980774 982.370034 1239.869324 983.111794 1245.974305 C983.687051 1250.709046 982.991006 1256.443177 985.444009 1259.898621 C988.778725 1264.595887 987.704690 1269.568543 988.819192 1274.227112 C991.355569 1284.828187 992.373757 1295.788392 994.136574 1306.581849 C994.507668 1308.853943 995.812600 1311.000062 996.025429 1313.266419 C996.858681 1322.140931 997.416604 1331.041199 998.111855 1339.929017 C998.171487 1340.691346 998.469338 1341.439149 998.688698 1342.184144 C1002.198952 1354.106141 1003.546792 1366.144959 1002.293557 1378.634949 C1001.740884 1384.143128 1003.330788 1389.873597 1004.013894 1395.495057 C1004.280495 1397.688904 1004.932778 1399.849061 1005.059792 1402.044739 C1005.795510 1414.763978 1006.448342 1427.488343 1007.075356 1440.213563 C1007.201028 1442.764466 1007.162087 1445.329041 1007.081032 1447.883484 C1006.810036 1456.424866 1006.826028 1464.995789 1006.045998 1473.492493 C1005.619607 1478.136170 1008.267739 1484.847352 1012.586526 1487.128602 C1015.198830 1488.508484 1017.678261 1490.143616 1020.194619 1491.700867 C1025.502968 1494.986146 1030.657998 1498.552918 1036.143349 1501.507630 C1039.994301 1503.581727 1045.244301 1500.758973 1045.099892 1497.246155 C1044.746987 1488.661439 1044.346230 1480.077698 1044.121987 1471.489441 C1043.972573 1465.769715 1044.211220 1460.039734 1044.050210 1454.320618 C1043.950600 1450.785584 1043.034829 1447.248231 1043.163125 1443.736634 C1043.658608 1430.173890 1044.722817 1416.626771 1044.992592 1403.062440 C1045.182046 1393.544617 1044.525307 1384.002991 1044.041787 1374.482483 C1043.865273 1371.005921 1042.990884 1367.570496 1042.624184 1364.096497 C1042.031655 1358.480897 1041.115761 1352.839905 1041.220254 1347.226014 C1041.339272 1340.825623 1043.030801 1334.436097 1042.955117 1328.054627 C1042.835244 1317.923035 1041.727334 1307.806336 1041.233071 1297.673890 C1041.090249 1294.748841 1041.886635 1291.781922 1041.785317 1288.850281 C1041.523110 1281.255921 1040.939492 1273.672913 1040.621621 1266.079651 C1040.532998 1263.962830 1040.750039 1261.794983 1041.125283 1259.704041 C1042.374917 1252.741639 1044.300820 1245.851502 1044.923501 1238.841004 C1045.427773 1233.163270 1044.480019 1227.347962 1044.070962 1221.601136 C1043.866494 1218.730164 1042.941079 1215.835511 1043.175942 1213.021058 C1044.327920 1199.225525 1045.638344 1185.440003 1047.145669 1171.678650 C1047.887002 1164.910706 1049.203408 1158.207093 1050.204507 1151.466004 C1050.580727 1148.932923 1051.645547 1146.105897 1050.932046 1143.882996 C1048.963418 1137.750306 1050.972329 1132.449769 1053.058144 1126.975159 C1053.937905 1124.665955 1054.641396 1122.244324 1055.054238 1119.810731 C1056.427041 1111.718934 1051.958779 1102.924744 1058.029214 1095.338196 C1058.517129 1094.728577 1057.970742 1093.372010 1058.113076 1092.392640 C1059.185586 1085.013611 1060.365639 1077.649720 1061.398232 1070.265198 C1062.063027 1065.511658 1062.043740 1060.608948 1063.192177 1055.987122 C1065.883950 1045.153626 1069.261269 1034.491273 1071.996010 1023.667420 C1072.870644 1020.205506 1072.170937 1016.357300 1072.961709 1012.859864 C1073.908120 1008.673462 1075.679482 1004.673462 1077.093545 999.592713 M596.593545 666.092713 C598.813454 662.647645 597.666299 660.475281 593.249856 660.121399 C589.143410 659.792420 584.911599 661.940125 582.420998 655.470643 C580.800515 651.261597 575.421242 648.449647 571.574868 645.189881 C570.804970 644.537354 569.352212 644.690369 568.214333 644.471924 C568.174111 645.512208 567.740273 646.754883 568.154946 647.561158 C571.938393 654.917359 572.168435 665.255433 583.687905 666.293763 C584.579812 666.374207 585.346352 667.845582 586.171181 668.670350 C587.231667 669.730836 588.124062 671.221070 589.403542 671.721619 C590.511941 672.155213 592.093545 671.578675 593.386025 671.185608 C593.669106 671.099488 593.916726 669.748719 593.662331 669.239014 C592.462685 666.834961 592.398476 666.867005 596.593545 666.092713 M625.093606 688.592713 C625.442300 687.577393 625.483193 686.153443 626.193581 685.618226 C629.063149 683.456727 628.584389 680.905030 626.466775 679.138306 C622.879494 676.145508 618.915444 673.540162 614.853066 671.222046 C613.702126 670.565247 611.223855 670.916199 610.120949 671.781861 C608.131753 673.343018 606.738259 675.017090 603.913979 673.214051 C603.122170 672.708497 601.392861 673.671692 600.093545 673.961243 C601.194741 675.005066 602.134072 676.446900 603.443276 676.979493 C604.722756 677.499940 606.435403 676.842225 607.855996 677.158875 C609.474343 677.519715 611.891091 677.986634 612.380532 679.101319 C614.805215 684.623108 620.423501 685.919983 625.093606 688.592713 M533.093545 626.592713 C533.564431 627.396973 534.240334 628.146485 534.471963 629.014588 C535.695595 633.600098 538.392068 635.773316 543.314187 635.171692 C544.779030 634.992676 546.425210 636.190735 547.868264 635.970765 C549.297585 635.752869 550.575478 634.541871 551.919778 633.766480 C551.100869 633.208558 550.275063 632.660340 549.464699 632.090333 C548.430642 631.363099 547.416970 630.606751 546.380471 629.883118 C541.989113 626.817017 537.927224 623.001526 533.118996 620.875306 C525.993935 617.724671 525.204384 617.285462 526.322671 609.338318 C526.402138 608.773255 526.165444 608.163758 526.075722 607.574830 C525.604592 607.724488 525.038552 607.754883 524.677346 608.042481 C521.464516 610.600159 519.882668 613.825867 522.904153 617.249085 C525.781045 620.508484 529.336465 623.168946 533.093545 626.592713 M956.093545 286.592713 C957.779702 286.945527 959.507851 287.711457 961.141274 287.545380 C963.128457 287.343293 965.035744 286.356141 966.977639 285.708588 C965.779397 284.766450 964.153481 284.061341 963.472512 282.832520 C962.077676 280.315827 959.705178 276.994813 960.424782 274.952759 C961.651650 271.471100 960.212075 269.679596 958.324807 267.938721 C955.049843 264.917725 951.467324 262.223145 947.933694 259.495484 C947.199685 258.928956 946.116677 258.814484 945.194619 258.491669 C945.244668 259.609070 944.845559 261.276642 945.422951 261.747986 C947.844399 263.724610 950.519265 265.405366 953.179787 267.068970 C954.733437 268.040375 956.435342 268.774720 958.070534 269.615723 C956.885293 271.441407 955.759377 273.309968 954.486306 275.072175 C953.957986 275.803376 952.419167 276.500550 952.525613 276.884400 C953.389077 279.997986 954.534280 283.033448 956.093545 286.592713 M647.093545 695.592713 C650.035012 695.426087 652.978066 695.279725 655.913491 695.039307 C656.079262 695.025635 656.420327 693.992920 656.275246 693.852418 C655.261513 692.870850 654.276711 691.680787 653.030312 691.150269 C648.662453 689.291016 643.080544 690.403809 639.889077 685.525330 C639.342202 684.689210 637.706582 684.565247 636.573891 684.112366 C636.483926 685.342652 635.956948 686.757203 636.383645 687.769776 C637.833535 691.210633 637.170144 691.636841 633.732278 690.457154 C632.615212 690.073853 630.821511 691.662293 629.337319 692.348939 C629.526345 692.700440 629.710793 693.354920 629.905007 693.357911 C632.633767 693.399170 635.721963 694.143250 637.997414 693.113526 C640.501321 691.980408 644.997231 692.263306 647.093545 695.592713 M1035.593545 1508.092835 C1034.760293 1508.713807 1033.249184 1509.291443 1033.206216 1509.962952 C1032.970254 1513.653748 1032.675332 1517.447938 1033.360757 1521.022400 C1033.554116 1522.030945 1036.997719 1522.949769 1038.914590 1522.882874 C1039.970254 1522.846009 1041.217080 1520.801819 1041.878213 1519.423157 C1042.367470 1518.402649 1041.560586 1516.597596 1042.181557 1515.832337 C1044.430825 1513.060364 1042.346718 1511.643616 1040.658608 1510.247132 C1039.501382 1509.289857 1037.961953 1508.794617 1035.593545 1508.092835 M694.093545 710.592713 C690.215554 709.092713 686.373147 707.482606 682.423134 706.205384 C681.793984 706.002015 680.403786 707.127320 679.903847 707.961060 C679.635049 708.409424 680.305031 709.779969 680.917885 710.312989 C681.825967 711.102784 683.039590 711.560731 684.158425 712.084778 C687.506997 713.653138 690.748635 715.821900 694.275002 716.508607 C696.657204 716.972535 699.449990 715.328309 702.059182 714.627076 C701.822671 713.782288 701.747475 712.307190 701.322671 712.198426 C699.128884 711.637208 696.845620 711.426026 694.093545 710.592713 M665.593545 708.092713 C667.247597 708.092713 668.918435 708.224427 670.545876 708.016358 C671.066201 707.949830 671.901955 706.525269 671.868142 706.493531 C668.561257 703.384583 665.353738 700.122681 661.728310 697.423279 C660.282204 696.346497 658.164773 696.665467 659.002419 699.727845 C659.173196 700.352295 658.360390 701.547303 657.682351 702.045716 C655.653725 703.536378 656.153603 704.375611 658.188332 705.096497 C660.495278 705.913758 662.792214 706.759400 665.593545 708.092713 M500.093545 581.592713 C501.207833 582.092713 502.291512 582.685425 503.445199 583.066041 C504.549386 583.430359 505.726357 583.574219 506.871285 583.814942 C506.439675 582.568543 506.241433 581.165528 505.530862 580.106263 C503.707375 577.388001 501.686776 574.798340 499.659798 572.224305 C499.391823 571.883973 498.627846 571.934205 498.093545 571.803589 C498.593545 574.899964 499.093545 577.996338 500.093545 581.592713 M497.093575 569.592713 C497.366494 568.532288 498.223000 567.068970 497.815316 566.478455 C495.564034 563.217957 493.033761 560.146058 490.506631 557.085877 C490.243783 556.767640 489.372262 556.952027 488.783181 556.903138 C488.794747 557.374451 488.627175 557.961243 488.845223 558.299378 C491.394448 562.252137 494.001656 566.167481 497.093575 569.592713 M653.593545 1185.092713 C655.803506 1186.092713 657.983803 1187.171326 660.248696 1188.025818 C660.697121 1188.195008 661.470193 1187.504090 662.093545 1187.209778 C661.659096 1186.569642 661.363747 1185.715760 660.765908 1185.326722 C658.327920 1183.740662 655.833352 1182.230042 653.275185 1180.848084 C652.655984 1180.513856 651.714150 1180.777161 650.920754 1180.765565 C651.065163 1181.461365 651.051919 1182.250916 651.394875 1182.828797 C651.800454 1183.512024 652.513650 1184.012879 653.593545 1185.092713 M490.093545 532.592713 C490.801095 531.300294 491.508645 530.007813 492.216225 528.715394 C490.846017 528.337159 489.207711 527.314210 488.173592 527.744202 C486.886239 528.279419 486.097573 530.014039 485.093545 531.230652 C486.593545 531.851319 488.093545 532.472046 490.093545 532.592713 M558.093545 650.592713 C559.228860 651.426026 560.260781 652.603272 561.531716 652.985291 C562.571084 653.297669 563.895486 652.661561 565.093545 652.445984 C564.382851 651.784119 563.594521 651.186890 562.978371 650.446351 C561.874245 649.119385 560.891335 647.692383 559.823098 646.334473 C559.213357 645.559327 558.535073 644.838196 557.887612 644.092713 C557.622964 645.241639 557.190102 646.385804 557.157815 647.541199 C557.138894 648.215821 557.760232 648.908265 558.093545 650.592713 M651.093545 1192.592591 C649.426919 1192.277405 647.760232 1191.962098 646.093545 1191.646912 C647.239236 1192.774598 648.385659 1193.901429 649.530373 1195.030091 C649.879494 1195.374329 650.239724 1196.033631 650.567910 1196.016907 C652.119973 1195.937928 653.672646 1195.725403 655.196938 1195.419739 C655.408852 1195.377381 655.464150 1194.553284 655.591958 1194.091126 C654.259194 1193.758240 652.926369 1193.425477 651.093545 1192.592591 M629.093606 1178.592713 C629.124551 1179.623597 629.155434 1180.654603 629.186318 1181.685486 C631.631814 1181.487855 634.082192 1181.329041 636.514138 1181.023743 C636.722268 1180.997620 636.808083 1179.997498 636.950722 1179.449891 C635.158303 1178.997498 633.374489 1178.505066 631.568703 1178.114441 C630.938210 1177.978089 630.253518 1178.092713 629.093606 1178.592713 M913.593545 1011.092713 C913.397378 1012.229920 912.840920 1014.273560 913.061928 1014.361329 C914.882790 1015.085267 916.847939 1015.446045 918.769387 1015.916871 C918.397011 1014.661744 918.303811 1013.192505 917.559731 1012.222535 C917.011635 1011.507935 915.613137 1011.445679 913.593545 1011.092713 M941.593545 479.092713 C942.106362 479.759369 942.619179 480.426026 943.131997 481.092713 C943.452492 480.331360 944.169289 479.477448 944.017129 478.826539 C943.606362 477.068543 942.850014 475.386597 942.137551 473.714203 C942.089760 473.601990 940.858254 473.827393 940.859170 473.885407 C940.882851 475.455323 940.995705 477.023896 941.593545 479.092713 M489.593545 544.092713 C488.822701 544.196900 487.949013 544.109131 487.306588 544.453126 C486.472634 544.899720 485.822701 545.689942 485.093545 546.332215 C485.914529 546.585694 486.740243 546.825013 487.554787 547.097657 C488.124947 547.288453 488.699410 547.735840 489.236550 547.686158 C489.875344 547.627015 490.946969 547.224976 490.999551 546.853760 C491.124703 545.970276 490.760201 545.017518 489.593545 544.092713 M942.093545 405.592713 C942.093545 406.250123 941.827187 407.117249 942.146706 407.523133 C942.911782 408.495148 943.952614 409.250153 944.882119 410.092713 C945.274880 409.581696 946.083840 408.715180 945.997170 408.613709 C944.938943 407.374848 943.749184 406.248353 942.093545 405.592713 M1239.093545 721.592713 C1238.452431 720.759400 1237.917641 719.365540 1237.146279 719.219422 C1235.875893 718.978760 1234.452431 719.545350 1233.093545 719.771729 C1233.935097 720.545411 1234.664345 721.566041 1235.653115 722.016175 C1236.474648 722.390076 1237.601845 722.092713 1239.093545 721.592713 M1244.593545 720.092713 C1245.415322 720.092713 1246.313027 720.303711 1247.040566 720.041810 C1248.056924 719.675782 1248.945962 718.956727 1249.889443 718.388672 C1248.589150 717.956666 1247.274087 717.179383 1245.994790 717.234376 C1245.328408 717.263062 1244.725259 718.759339 1244.593545 720.092713 M481.593545 543.092713 C480.561959 542.457642 479.530343 541.822571 478.498727 541.187501 C478.363656 542.122193 477.820382 543.292054 478.191048 543.935303 C478.721688 544.856202 479.920174 545.392335 480.833504 546.092713 C481.253518 545.259400 481.673562 544.426087 481.593545 543.092713 M1209.593545 1040.092713 C1209.260293 1041.092713 1208.926919 1042.092713 1208.593545 1043.092713 C1210.024453 1042.995057 1211.455483 1042.897400 1212.886391 1042.799866 C1212.122109 1041.897523 1211.357827 1040.995179 1209.593545 1040.092713 M1359.593545 682.092713 C1358.903969 680.759400 1358.214516 679.426026 1357.524941 678.092713 C1357.047768 678.357056 1356.570717 678.621338 1356.093545 678.885621 C1356.926919 679.954651 1357.760171 681.023682 1359.593545 682.092713 M924.593545 1034.092713 C924.386391 1035.218934 924.179299 1036.345032 923.972146 1037.471253 C924.886452 1036.971253 925.800698 1036.471253 926.714944 1035.971253 C926.174477 1035.178406 925.634011 1034.385560 924.593545 1034.092713 M954.593606 296.092682 C954.064126 295.092682 953.534646 294.092682 953.005227 293.092743 C952.391030 293.903077 951.776833 294.713410 951.162575 295.523682 C952.139565 295.880005 953.116555 296.236359 954.593606 296.092682 M946.093545 373.592713 C946.678200 374.341401 947.262856 375.090088 947.847512 375.838776 C948.262856 375.182129 948.678200 374.525513 949.093545 373.868867 C948.260232 373.610138 947.426858 373.351441 946.093545 373.592713 M863.093545 920.592713 C863.409951 919.909119 863.726357 919.225525 864.042763 918.541932 C863.241982 918.709900 862.441140 918.877869 861.640359 919.045899 C861.958108 919.728150 862.275796 920.410462 863.093545 920.592713 M984.093545 1330.592713 C983.422097 1330.264100 982.750710 1329.935608 982.079262 1329.606995 C981.869729 1330.054627 981.660195 1330.502259 981.450661 1330.949769 C982.331643 1331.164124 983.212624 1331.378357 984.093545 1330.592713 M1297.593545 1087.092713 C1296.829873 1087.523011 1296.066201 1087.953431 1295.302529 1088.383729 C1295.536294 1088.620057 1295.914712 1089.096375 1295.981606 1089.055970 C1296.713662 1088.614686 1297.397011 1088.092835 1297.593545 1087.092713 z"/><path class="selected"  fill="#000000" opacity="1.000000" stroke="none" 
 	d="
M1358.343545 500.342652 C1361.763711 498.092682 1364.939248 496.101319 1368.099526 494.085724 C1368.766884 493.660035 1369.770547 493.263886 1369.954507 492.653779 C1372.048867 485.703003 1378.832070 485.573731 1383.921548 483.207764 C1387.318520 481.628602 1390.110390 480.366608 1391.224038 476.221375 C1392.512978 471.423859 1397.751748 472.722535 1401.134316 471.098755 C1413.369790 465.225068 1427.689614 464.527192 1438.846963 455.920136 C1439.636513 455.311127 1440.928139 455.352143 1441.986611 455.092896 C1447.432168 453.759156 1452.884194 452.451539 1458.316689 451.066895 C1459.194375 450.843171 1460.478066 450.479523 1460.739907 449.839326 C1463.512856 443.061677 1469.310464 447.187806 1473.646157 446.163971 C1474.647256 445.927552 1476.024453 446.390107 1476.710244 445.860230 C1480.492837 442.937531 1487.322426 443.638337 1490.086831 447.743714 C1490.947793 449.022278 1491.200234 451.204224 1490.760537 452.684144 C1490.486001 453.608124 1488.279580 453.840577 1487.171059 454.686280 C1486.656899 455.078492 1486.348916 456.287720 1486.535317 456.964692 C1487.973672 462.186341 1489.771645 467.318116 1490.997475 472.584992 C1491.561928 475.009797 1491.909218 478.049103 1490.940468 480.160889 C1488.041909 486.479951 1488.552285 494.097596 1483.296792 499.533997 C1481.871133 501.008759 1481.108193 503.270722 1480.433022 505.301667 C1474.768105 522.342286 1462.802651 535.132752 1451.342324 548.199097 C1447.270058 552.842347 1441.804238 556.288819 1437.881264 561.031495 C1432.571328 567.451172 1424.636391 571.583008 1422.567910 581.145691 C1421.848794 584.470460 1415.007363 586.408814 1411.057900 589.120179 C1408.713540 590.729615 1406.054970 592.239503 1404.415810 594.446473 C1400.617592 599.560120 1396.197915 603.439637 1390.350503 606.273499 C1385.442544 608.652039 1381.446816 612.844727 1376.759682 615.774232 C1374.200722 617.373719 1371.015664 617.947205 1368.166909 619.115113 C1365.888589 620.049256 1363.581216 620.997803 1361.478432 622.259583 C1352.793374 627.471070 1344.212075 632.855347 1335.527749 638.067933 C1331.947182 640.217042 1328.409218 642.828919 1324.486855 643.929261 C1317.704629 645.831971 1312.813149 650.499817 1307.024941 653.817322 C1300.310097 657.666016 1292.398476 659.426941 1285.003457 662.086060 C1284.855874 662.139100 1284.586953 662.020936 1284.518105 662.102967 C1279.178628 668.464112 1270.072182 665.797181 1264.283608 670.256959 C1258.112588 675.011292 1251.595498 677.503052 1243.990517 678.212647 C1241.335610 678.460450 1238.575112 679.718201 1236.269692 681.163636 C1229.603554 685.342957 1221.885415 683.114136 1214.887002 685.080140 C1207.567422 687.136353 1200.229775 689.130189 1192.871255 691.040955 C1192.040200 691.256775 1190.345009 690.956605 1190.227578 690.553162 C1189.936928 689.554444 1189.970498 688.136780 1190.501259 687.273194 C1196.631142 677.299622 1203.241372 667.602112 1208.969033 657.407166 C1212.949746 650.321412 1215.549233 642.472779 1219.197426 635.180909 C1220.658120 632.261475 1223.082680 629.731934 1225.405434 627.354065 C1231.899941 620.705567 1237.598916 613.560242 1242.266884 605.441834 C1244.341836 601.833130 1248.258950 599.264771 1251.419106 596.308899 C1252.569619 595.232728 1254.113564 594.559571 1255.197793 593.433045 C1259.815713 588.635010 1263.356728 582.652833 1270.218667 580.376038 C1271.208047 580.047791 1272.269814 578.942444 1272.655556 577.947510 C1275.756142 569.949647 1283.134438 566.986756 1289.647622 562.827881 C1292.267007 561.155274 1293.923134 558.005616 1296.101723 555.604554 C1300.050088 551.252808 1303.901162 546.793763 1308.103432 542.698060 C1310.859902 540.011536 1310.830239 538.494752 1307.342324 536.757691 C1306.417519 536.297059 1305.833901 535.151673 1305.093545 534.320740 C1305.976601 533.578003 1306.786538 532.325623 1307.756142 532.186585 C1310.862710 531.741028 1314.526040 532.658265 1317.071938 531.325501 C1323.149087 528.144044 1328.629189 523.844605 1334.504800 520.248963 C1339.156899 517.402039 1344.248452 515.336609 1345.812905 509.131928 C1346.153847 507.780091 1349.197426 507.209565 1350.847085 506.064393 C1353.331460 504.339692 1355.684609 502.425995 1358.343545 500.342652 z"/><path class="selected"  fill="#000000" opacity="1.000000" stroke="none" 
 	d="
M1412.093545 1052.092713 C1402.651772 1060.118470 1392.382485 1065.705018 1380.118203 1067.187806 C1376.482217 1067.627503 1373.046181 1069.610413 1369.408364 1070.173157 C1363.323037 1071.114564 1357.158730 1071.617615 1351.010293 1072.067933 C1331.088906 1073.526673 1312.912514 1066.581360 1295.346352 1058.844056 C1278.269204 1051.322083 1262.006997 1041.914246 1245.558877 1033.016663 C1238.976601 1029.455872 1232.685586 1025.280091 1226.599404 1020.913880 C1223.903115 1018.979554 1222.280678 1015.614075 1219.760781 1013.355774 C1212.784585 1007.103455 1205.178506 1001.500855 1198.615639 994.856934 C1193.264931 989.440430 1189.031045 982.914612 1184.362588 976.834046 C1182.732705 974.711182 1181.177407 972.514832 1179.772744 970.238099 C1176.175942 964.408631 1172.717080 958.494080 1169.133706 952.656128 C1167.331460 949.720154 1165.385049 946.872254 1163.489297 943.994141 C1162.710610 942.811890 1161.402260 941.744202 1161.171059 940.472413 C1159.274331 930.035096 1150.687295 923.542176 1146.178261 914.670044 C1144.850381 912.057068 1143.334878 909.502198 1142.354043 906.760193 C1141.354897 903.966981 1142.880044 902.915894 1145.669961 903.150879 C1153.846108 903.839661 1162.019692 904.783875 1170.211342 905.011658 C1181.420693 905.323243 1192.360390 906.804505 1202.973794 910.473816 C1203.556557 910.675232 1204.125771 911.028931 1204.718545 911.071351 C1214.438393 911.768067 1224.345132 913.891785 1233.833535 912.699280 C1244.281045 911.386231 1252.856728 914.899537 1261.872475 918.345093 C1262.883584 918.731446 1264.167763 919.327698 1265.035927 919.017335 C1272.187173 916.460633 1277.115395 920.211121 1282.813271 923.852112 C1288.681801 927.602112 1295.811562 929.353760 1302.329384 932.121522 C1305.873452 933.626526 1309.190224 935.711182 1312.798745 937.007508 C1316.009316 938.161011 1319.725381 938.048585 1322.790444 939.438538 C1331.497719 943.387330 1340.003457 947.783936 1348.555092 952.071045 C1355.130044 955.367188 1360.874917 959.670044 1366.508340 964.526490 C1371.884072 969.160706 1379.353676 971.269410 1385.437173 975.207764 C1390.902383 978.745972 1395.731484 983.265626 1400.847451 987.344544 C1405.731240 991.238343 1410.654458 995.083558 1415.501626 999.022156 C1419.611611 1002.361634 1423.978921 1005.477112 1427.621010 1009.277588 C1433.008462 1014.899720 1433.856240 1027.209534 1427.413125 1033.507996 C1421.788613 1039.006409 1417.161416 1045.524842 1412.093545 1052.092713 z"/><path class="selected"  fill="#000000" opacity="1.000000" stroke="none" 
 	d="
M644.343545 536.842713 C648.400368 539.899537 652.019387 543.019105 656.056069 545.443116 C662.847817 549.521546 666.080483 557.463318 674.254250 560.437623 C679.385354 562.304810 683.545876 567.272034 687.698159 571.305237 C695.977944 579.347596 704.509377 587.044373 710.872170 597.027283 C716.167214 605.334961 723.531472 612.294556 729.561989 620.170777 C735.994363 628.571900 741.564980 637.646973 748.186135 645.885926 C756.788125 656.589661 760.166482 670.313721 769.092995 680.745972 C770.330300 682.191895 771.536050 683.665650 772.801736 685.086060 C773.904092 686.323121 775.284707 687.364319 776.170937 688.732667 C779.562905 693.969910 782.813698 699.298829 786.091530 704.609376 C786.483132 705.243775 786.717019 705.975586 787.024026 706.662232 C786.417031 706.805726 785.766884 707.169251 785.209572 707.059815 C776.590981 705.367493 767.998086 703.542115 759.370278 701.899903 C753.782509 700.836426 748.099404 700.242371 742.546731 699.034730 C736.019326 697.615296 729.616433 695.632447 723.107461 694.117676 C706.785927 690.319459 691.728921 682.940491 675.950295 677.667359 C656.433388 671.144837 638.660988 661.286072 620.882302 651.317933 C615.848122 648.495362 611.297036 644.767274 606.155190 642.191346 C598.732339 638.472596 590.963174 635.447693 583.365517 632.073243 C581.954873 631.446778 580.389687 630.829346 579.346780 629.765565 C566.602517 616.767029 552.645669 604.635804 543.567361 588.677552 C538.758095 580.223633 535.884804 570.486024 533.292885 561.011902 C531.293313 553.702576 530.751198 545.923524 530.246438 538.307923 C530.014687 534.811768 531.135110 531.118470 532.174294 527.675171 C533.245583 524.125550 537.478921 522.997681 539.301247 520.760193 C546.841653 511.501832 558.073342 514.899537 567.199074 511.608155 C573.655190 509.279664 582.347085 510.266144 589.111916 512.538453 C595.139016 514.562928 600.944009 515.398072 607.053689 516.368287 C613.321328 517.363648 619.379738 520.252259 625.271889 522.888489 C632.450905 526.100586 639.079262 530.297669 644.343545 536.842713 M673.593484 568.092652 C672.845254 569.011109 671.297036 570.525879 671.469887 570.757813 C673.731850 573.792420 676.588418 576.070557 680.630044 576.002381 C680.936318 575.997254 681.641152 574.261658 681.451516 574.082886 C679.244424 572.002442 676.900918 570.066773 673.593484 568.092652 M697.593545 591.092713 C695.519082 589.833863 693.459878 588.546998 691.330971 587.388062 C691.207863 587.320984 690.070595 588.599854 690.162514 588.734131 C691.153176 590.181397 692.078042 591.879639 693.489419 592.745911 C694.190774 593.176270 695.861428 592.027222 697.593545 591.092713 M659.593545 567.092713 C660.400185 566.952698 661.206887 566.812745 662.013467 566.672730 C661.611123 565.883729 661.208779 565.094666 660.806496 564.305665 C660.235512 565.067994 659.664590 565.830384 659.593545 567.092713 z"/><path class="selected"  fill="#000000" opacity="1.000000" stroke="none" 
 	d="
M869.843545 983.842713 C866.426858 989.779297 863.265298 995.468751 860.085427 1001.147950 C859.778542 1001.696168 859.371194 1002.190674 858.989052 1002.693848 C855.811501 1006.877564 852.586953 1011.026124 849.456277 1015.244507 C841.910622 1025.411927 834.864785 1035.994324 826.745888 1045.678773 C820.082680 1053.626649 812.226723 1060.586121 804.782021 1067.863709 C799.032326 1073.484192 793.166054 1078.990174 787.231301 1084.415467 C781.606362 1089.557557 776.377907 1095.443299 769.959634 1099.321595 C763.285073 1103.354676 756.861245 1107.382874 750.871255 1112.458069 C746.754128 1115.946473 741.109231 1117.645814 736.117287 1120.083558 C730.576089 1122.789612 724.216225 1124.495179 719.651345 1128.342957 C714.643288 1132.564393 708.459878 1133.075989 703.299355 1136.160340 C699.869057 1138.210511 696.562417 1139.648987 692.475991 1140.402405 C688.444314 1141.145814 684.346535 1143.849793 681.265725 1146.745057 C678.470742 1149.371766 675.587014 1149.540467 672.673684 1148.982728 C665.949196 1147.695618 660.179421 1149.751404 654.637795 1153.073304 C649.363259 1156.235047 643.818459 1155.109925 638.468484 1153.867127 C629.499734 1151.783753 625.489663 1141.562195 629.854836 1132.817200 C630.334817 1131.855652 631.075356 1130.811707 631.033120 1129.834534 C630.595803 1119.708314 636.180459 1112.097474 642.016152 1104.918152 C645.736245 1100.341614 648.534096 1095.371888 651.691872 1090.541077 C654.788064 1085.804627 660.686684 1082.948670 665.178811 1079.063294 C670.352029 1074.589051 674.903664 1069.262757 680.502297 1065.446351 C687.815285 1060.461243 691.817300 1051.737610 701.085366 1048.794983 C704.958535 1047.565125 708.153603 1043.355164 710.993203 1039.947083 C713.959267 1036.387147 717.062478 1034.181214 721.866372 1033.939149 C724.159646 1033.823426 726.897866 1032.599427 728.518655 1030.967713 C733.102700 1026.352479 737.728310 1022.324402 744.443703 1020.909180 C746.990700 1020.372376 749.054848 1017.691834 751.417763 1016.105652 C757.928994 1011.734864 765.182656 1008.177796 770.840859 1002.902588 C777.927163 996.296021 787.592995 995.577088 795.148598 990.246338 C799.208840 987.381775 804.401162 986.138550 809.034341 984.056031 C810.025124 983.610657 810.745644 982.600098 811.694131 982.018616 C817.136941 978.681885 822.607094 975.389527 828.079384 972.101258 C828.737221 971.705933 829.489297 971.469300 830.155617 971.085938 C835.601662 967.953126 840.847878 965.281006 847.608926 964.637696 C854.257668 964.005005 860.492776 959.762024 867.102395 957.731080 C871.739907 956.306153 876.689492 955.854188 881.526467 955.152344 C882.659890 954.987977 883.901650 955.570130 885.093545 955.808838 C884.760110 957.003724 884.652138 958.326661 884.057717 959.373292 C879.455971 967.476502 874.760232 975.526368 869.843545 983.842713 z"/><path class="selected"  fill="#000000" opacity="1.000000" stroke="none" 
 	d="
M1002.093545 1178.092713 C998.093545 1161.589417 994.118386 1145.579651 990.058571 1129.591614 C989.608742 1127.820252 988.576699 1126.204774 987.988686 1124.458436 C986.952920 1121.382752 986.110818 1118.242005 985.083047 1115.163392 C980.811257 1102.366883 983.057717 1087.864319 975.876015 1076.035584 C971.670022 1069.107972 971.411721 1061.511048 969.021584 1054.335877 C964.735879 1041.470399 960.028603 1028.745179 955.467263 1015.972046 C949.714577 999.862610 943.720559 983.835023 938.270791 967.624146 C936.239541 961.582032 935.255288 955.156739 934.144265 948.844544 C932.851357 941.498047 936.267556 938.150574 943.908120 935.910645 C951.394692 933.715760 958.567666 930.289185 965.643960 926.912293 C970.600686 924.546937 975.482949 922.740113 981.064553 923.027833 C982.737466 923.114136 984.528420 922.640687 986.132058 922.057313 C995.528481 918.639100 1005.517739 917.921448 1015.122780 918.507813 C1021.985818 918.926941 1027.259804 917.748902 1032.720254 914.175538 C1034.446938 913.045533 1037.158852 913.450745 1039.408486 913.083924 C1043.302651 912.448792 1047.310342 912.151917 1051.044106 910.987427 C1055.147378 909.707642 1057.394570 910.762024 1056.986245 915.112610 C1056.731972 917.821351 1055.229897 920.389283 1054.657021 923.098511 C1054.096352 925.749329 1053.974770 928.496338 1053.722817 931.206971 C1053.639931 932.099244 1054.127114 933.262269 1053.716469 933.872742 C1049.494179 940.148804 1050.444009 947.799073 1048.074868 954.543702 C1047.259804 956.864380 1045.852578 959.037903 1045.402505 961.408997 C1044.946938 963.809327 1045.338906 966.370789 1045.363442 968.861695 C1045.374673 969.999451 1045.882363 971.539307 1045.330483 972.207886 C1042.353799 975.813782 1040.758340 979.639527 1040.915810 984.487000 C1040.982339 986.537232 1038.617348 988.554932 1038.174233 990.752137 C1035.996621 1001.550232 1034.086465 1012.402466 1032.108193 1023.240418 C1031.962441 1024.039002 1032.352334 1025.132874 1031.941323 1025.655091 C1027.447549 1031.364686 1028.062417 1038.695618 1025.757485 1045.097596 C1025.099526 1046.925355 1026.289101 1049.335999 1026.031777 1051.404725 C1025.051308 1059.284363 1023.853921 1067.138001 1022.677346 1074.992127 C1022.234170 1077.950379 1021.032509 1080.917176 1021.195107 1083.823060 C1021.939614 1097.132996 1016.353615 1109.374573 1015.066140 1122.325745 C1013.861001 1134.448182 1012.436562 1146.549012 1011.074074 1158.655457 C1010.971352 1159.567933 1010.706460 1160.501893 1010.322732 1161.336487 C1007.765542 1166.898621 1008.165566 1172.403260 1010.397744 1177.952210 C1010.762612 1178.859192 1010.709939 1179.980164 1010.671914 1180.995423 C1010.516762 1185.136902 1010.277077 1189.275208 1010.102273 1193.415955 C1010.046059 1194.746522 1010.442727 1196.213563 1010.000832 1197.378968 C1009.503457 1198.690980 1008.293008 1199.732606 1007.392739 1200.891785 C1006.959634 1199.571717 1006.416665 1198.276429 1006.112343 1196.927308 C1004.735879 1190.824158 1003.426858 1184.705628 1002.093545 1178.092713 z"/><path class="selected"  fill="#000000" opacity="1.000000" stroke="none" 
 	d="
M1021.093545 888.092713 C1015.011391 889.092713 1009.429421 890.094117 1003.846963 891.092408 C995.627480 892.562195 987.444009 894.304566 979.174905 895.400696 C973.771950 896.116944 968.221047 896.247620 962.786904 895.884644 C961.085122 895.770936 957.172097 894.505372 959.931008 890.639039 C960.430520 889.939026 960.464150 888.295289 959.974099 887.638367 C959.164834 886.553650 957.753945 885.917725 956.596596 885.092713 C955.762246 886.412171 954.630044 887.634827 954.162514 889.073487 C953.440163 891.296143 953.319009 893.713013 952.612466 895.942811 C952.428078 896.524964 951.012185 896.998658 950.181313 896.969361 C949.794717 896.955750 949.093117 895.586976 949.158486 894.891175 C949.394875 892.376832 949.882424 889.885132 950.303078 887.389527 C950.538125 885.995240 951.381020 884.434449 951.004128 883.249451 C948.472939 875.290162 953.059243 868.060853 953.146889 860.393250 C953.158364 859.388550 953.607094 858.027405 954.340371 857.450806 C959.398659 853.473084 958.948952 848.008545 959.229714 842.397034 C959.621255 834.574097 959.511819 826.724061 963.915627 819.354920 C966.341286 815.296021 966.415505 809.691956 967.024880 804.720154 C967.953469 797.142823 968.568093 789.518494 969.044228 781.897156 C969.365700 776.751954 968.985451 771.870606 971.744057 766.791627 C973.584328 763.403443 972.100930 758.205994 972.091958 753.818299 C972.074135 745.059449 972.211709 744.940064 980.822976 745.082398 C984.543374 745.143860 988.265725 745.092713 991.987160 745.092713 C997.041115 745.092713 1002.095132 745.092713 1007.149087 745.092713 C1015.534402 745.092713 1023.921303 745.185853 1032.304238 745.047059 C1035.668618 744.991273 1039.018838 744.336670 1042.386147 744.118287 C1045.639565 743.907227 1046.672524 745.696778 1047.237588 748.817261 C1047.829507 752.086304 1049.435586 755.207276 1050.832802 758.286622 C1052.806924 762.637330 1055.508706 766.720887 1056.995888 771.217530 C1061.169961 783.838807 1064.452431 796.739808 1072.230263 807.921387 C1074.547280 811.252503 1075.432900 815.559815 1077.116128 819.356995 C1078.676919 822.877747 1080.533974 826.268006 1082.070595 829.798340 C1085.015298 836.563294 1083.587929 843.117066 1081.145913 849.723450 C1078.899697 855.799744 1076.885781 861.980958 1075.148842 868.221558 C1073.205361 875.204712 1063.866616 881.641663 1056.449990 880.002747 C1046.157632 877.728455 1037.094887 879.657593 1028.640298 885.874390 C1026.762856 887.254944 1023.966714 887.386170 1021.093545 888.092713 M991.593545 886.092774 C993.166848 885.519471 994.796792 885.057068 996.276955 884.301453 C996.690041 884.090516 996.661050 883.013611 996.834817 882.333985 C995.066262 882.275025 993.270180 882.041749 991.554055 882.313416 C991.235451 882.363831 991.238808 884.447510 991.593545 886.092774 M984.593545 885.092713 C984.286355 886.118897 983.979226 887.145081 983.672097 888.171204 C985.492348 887.631898 987.331277 887.144532 989.114785 886.503174 C989.418679 886.393921 989.485207 885.624878 989.661416 885.160584 C988.305459 885.138001 986.949502 885.115357 984.593545 885.092713 M966.593545 887.092713 C965.477761 887.976929 964.362038 888.861207 963.246255 889.745423 C964.192422 890.194520 965.138528 890.643616 966.084695 891.092713 C966.587624 889.759400 967.090615 888.426026 966.593545 887.092713 z"/><path class="selected"  fill="#000000" opacity="1.000000" stroke="none" 
 	d="
M910.093545 745.092713 C912.982217 745.092713 915.378091 744.975159 917.757973 745.119385 C921.623208 745.353699 925.488381 745.675538 929.329934 746.151307 C930.297219 746.271058 931.986367 747.138184 931.972634 747.623108 C931.744607 755.681153 931.634255 763.767823 930.806252 771.776551 C929.960610 779.955506 928.351540 788.054993 927.110146 796.194336 C926.986001 797.008179 927.454873 798.214783 927.038491 798.635682 C922.055398 803.673829 924.167580 810.540894 922.548073 816.432679 C919.356362 828.044434 917.726906 840.076111 914.990456 851.826783 C913.775918 857.042176 911.288796 861.948914 909.678078 867.089417 C908.821023 869.824524 908.746194 872.796387 908.034096 875.588868 C907.662392 877.046753 906.675576 878.347718 905.966592 879.719666 C905.008950 878.866089 903.607827 878.197632 903.162148 877.130372 C898.715737 866.480958 894.647500 855.669312 890.020180 845.101502 C886.621682 837.340027 882.817544 829.724305 878.698708 822.319153 C874.835305 815.373536 871.360696 807.721924 865.819619 802.328187 C859.484719 796.161805 860.670205 787.312134 855.315713 780.934022 C851.042641 775.843995 848.484048 769.211793 845.687356 763.027588 C844.237343 759.821168 844.157754 756.021058 843.004494 752.644410 C842.317483 750.632508 840.645913 748.976929 839.615212 747.054871 C839.003091 745.913331 838.278054 744.434937 838.559670 743.358033 C838.733620 742.693177 840.742409 742.064576 841.863320 742.161500 C850.667580 742.922913 859.443825 744.033692 868.254494 744.688965 C874.069741 745.121399 879.936745 744.818482 885.763833 745.144471 C890.230630 745.394349 894.666970 746.457825 899.124795 746.511963 C902.608132 746.554322 906.103493 745.602723 910.093545 745.092713 z"/><path class="selected"  fill="#000000" opacity="1.000000" stroke="none" 
 	d="
M1013.343545 653.842713 C1018.760232 669.770325 1023.861733 685.469971 1029.149819 701.106507 C1030.178261 704.147706 1032.141030 706.863099 1033.300820 709.872132 C1034.784218 713.720643 1033.252602 715.953187 1029.184365 716.062623 C1024.411538 716.190980 1019.619790 715.870057 1014.858864 716.141175 C1006.133279 716.637940 997.428689 717.496277 988.705971 718.057313 C985.332558 718.274293 981.645363 718.892762 978.647072 717.812806 C976.632973 717.087220 974.485757 713.746522 974.388772 711.490357 C974.283730 709.045106 976.759316 706.589478 977.618935 703.976990 C978.703225 700.681824 979.852395 697.241334 979.962685 693.830933 C980.129983 688.656495 979.398171 683.455506 979.125893 678.261658 C979.087075 677.522095 979.406777 676.729371 979.690468 676.012696 C982.134072 669.838379 981.850442 663.640687 980.168313 657.334656 C979.824441 656.045533 980.191323 654.413819 980.654763 653.088318 C982.914162 646.625245 983.186562 640.066651 982.138344 633.356080 C981.889016 631.760132 981.618630 629.733887 982.351418 628.491639 C985.876382 622.516175 984.918679 616.025513 985.126259 609.628663 C985.300210 604.266419 986.058510 598.909546 985.989113 593.557618 C985.942605 589.967225 984.497597 586.400086 984.405190 582.803834 C984.277138 577.819275 984.825234 572.816712 985.186379 567.829285 C985.189797 567.781800 987.007302 567.533753 987.271035 567.895264 C988.360268 569.387940 989.561562 570.975525 990.032082 572.714783 C993.479348 585.457459 996.634194 598.279786 1000.130837 611.008484 C1003.287270 622.498536 1006.725197 633.911927 1010.118630 645.335450 C1010.950417 648.135377 1012.093545 650.842774 1013.343545 653.842713 z"/><path class="selected"  fill="#000000" opacity="1.000000" stroke="none" 
 	d="
M1091.093545 796.092713 C1089.426919 791.621522 1088.480508 787.094483 1085.937661 783.799500 C1081.221718 777.688538 1080.224282 770.466919 1078.035683 763.537110 C1076.183510 757.672608 1073.931191 751.925965 1071.655556 746.206849 C1070.165932 742.463074 1072.447426 740.999390 1075.192300 741.211976 C1085.315224 741.995972 1094.765053 738.616578 1104.530312 737.231324 C1109.971596 736.459473 1115.622597 736.917603 1121.153603 737.248047 C1122.195351 737.310303 1124.105630 739.590027 1123.919350 740.499024 C1123.181557 744.100220 1122.803750 748.745606 1120.403969 750.844178 C1114.495522 756.010621 1114.597573 763.604859 1111.091958 769.611024 C1109.213418 772.829896 1106.937783 775.880433 1105.514077 779.287964 C1102.787026 785.815552 1100.491250 792.526551 1098.128701 799.201111 C1097.558877 800.810608 1097.471474 802.585633 1097.076455 804.264344 C1096.849648 805.228150 1096.450356 806.151246 1096.128823 807.092713 C1095.117104 806.313233 1093.577309 805.731507 1093.196816 804.715577 C1092.220986 802.110901 1091.760171 799.313233 1091.093545 796.092713 z"/><path class="selected"  fill="#000000" opacity="1.000000" stroke="none" 
 	d="
M961.093545 330.092713 C961.784829 326.915223 963.270852 326.069459 965.464333 328.035645 C966.845559 329.273682 967.895180 330.881653 969.093545 332.323670 C967.749062 332.913361 966.173073 334.246003 965.114968 333.916352 C963.578530 333.437653 962.415688 331.759369 961.093545 330.092713 z"/><path class="selected"  fill="#000000" opacity="1.000000" stroke="none" 
 	d="
M1006.343545 1210.342713 C1010.297036 1210.351380 1011.293740 1213.030335 1010.935769 1215.929139 C1010.751565 1217.421448 1008.928200 1218.711365 1007.845498 1220.092713 C1007.594887 1218.763856 1007.339516 1217.435853 1007.094826 1216.105897 C1006.756814 1214.268982 1006.426858 1212.430482 1006.343545 1210.342713 z"/><path class="selected"  fill="#000000" opacity="1.000000" stroke="none" 
 	d="
M1227.843545 591.842713 C1226.125405 592.291260 1224.657265 592.489808 1223.189126 592.688294 C1223.711709 591.435303 1224.228799 590.179993 1224.764809 588.932679 C1224.825722 588.790833 1224.983437 588.683838 1225.110879 588.578187 C1226.380898 587.525147 1227.653969 586.475831 1228.926186 585.425416 C1230.223183 587.693787 1230.059609 589.764893 1227.843545 591.842713 z"/><path class="selected"  fill="#000000" opacity="1.000000" stroke="none" 
 	d="
M1233.093545 583.092713 C1232.626992 582.059266 1232.265908 580.515015 1232.786904 580.112488 C1233.560830 579.514588 1235.173134 579.299256 1236.022744 579.727112 C1236.685342 580.060853 1236.730141 581.621338 1237.049599 582.636658 C1235.897622 582.788697 1234.745522 582.940735 1233.093545 583.092713 z"/><path class="selected"  fill="#000000" opacity="1.000000" stroke="none" 
 	d="
M968.093545 313.092713 C968.498391 311.759369 968.903237 310.926056 969.308144 310.092713 C969.903298 311.093934 970.498452 312.095154 971.093545 313.096436 C970.093545 313.261841 969.093545 313.427277 968.093545 313.092713 z"/><path class="selected"  fill="#000000" opacity="1.000000" stroke="none" 
 	d="
M967.843545 316.842713 C968.760232 317.463807 969.450295 318.319642 970.048501 319.235444 C970.095376 319.307221 969.502358 319.797120 969.206826 320.092713 C968.669045 319.092713 968.131325 318.092713 967.843545 316.842713 z"/><path class="selected"  fill="#000000" opacity="1.000000" stroke="none" 
 	d="
M1270.343545 570.842713 C1270.042885 571.759400 1269.492226 572.426087 1268.941567 573.092713 C1268.658974 572.449036 1268.376259 571.805359 1268.093545 571.161744 C1268.760171 570.972046 1269.426919 570.782410 1270.343545 570.842713 z"/><path class="selected"  fill="#000000" opacity="1.000000" stroke="none" 
 	d="
M806.093545 742.092713 C805.113747 741.905823 804.134011 741.218934 803.154214 740.532044 C803.414162 740.385560 803.783913 740.048218 803.915993 740.124207 C804.673073 740.559388 805.373696 741.092713 806.093545 742.092713 z"/></svg>