<?xml version="1.0" encoding="utf-8"?><!DOCTYPE svg PUBLIC "-//W3C//DTD SVG 1.1//EN" "http://www.w3.org/Graphics/SVG/1.1/DTD/svg11.dtd"><svg version="1.1" id="Contours" xmlns="http://www.w3.org/2000/svg" xmlns:xlink="http://www.w3.org/1999/xlink" x="0px" y="0px" width="1251.833862px" height="1099.425293px" viewBox="0.000008 -0.000014 1251.833862 1099.425293" xml:space="preserve" stroke="black" fill="none" stroke-linecap='round' stroke-linejoin='round'><path class="selected"  fill="#000000" opacity="1.000000" stroke="none" 
 	d="
M669.826532 376.387663 C672.962556 367.915301 676.716600 359.631201 681.652905 352.064930 C696.890108 328.709641 723.122415 313.492504 750.693943 309.314858 C778.265470 305.137212 806.890302 311.449734 831.511225 324.543702 C852.712807 335.819186 865.462314 359.981305 865.942992 383.989894 C866.423671 407.998484 855.735533 431.408887 839.621882 449.213204 C823.508231 467.017520 802.314323 479.615636 780.067552 488.655801 C764.154561 495.122181 746.193740 499.886527 729.999552 494.160657 C706.449172 485.833818 682.096708 474.058390 669.894131 452.262661 C657.137958 429.478138 660.762140 400.876260 669.826534 376.387665 z"/><path class="selected"  fill="#000000" opacity="1.000000" stroke="none" 
 	d="
M760.375498 8.510423 C768.251463 18.337357 765.156581 33.620109 756.889152 43.120059 C748.621724 52.620009 736.540761 57.731729 724.907466 62.555200 C517.865779 148.400147 308.108163 244.328773 151.953479 405.112258 C129.044678 428.700130 107.066761 454.135393 94.334705 484.451982 C81.602650 514.768571 79.242286 550.952940 95.044944 579.788280 C116.264861 618.508570 163.076439 634.478329 206.284773 643.565986 C306.434757 664.629716 410.607295 666.394825 511.413396 648.736114 C486.317675 608.395367 467.188089 564.350022 454.838303 518.473515 C451.054495 504.417579 448.425210 487.788168 457.823183 476.672204 C473.904252 457.651446 504.603205 473.373837 522.816879 490.363599 C563.404885 528.224208 600.127881 570.225934 632.230826 615.505207 C639.566215 625.851330 654.971430 624.819065 667.459042 622.603268 C822.428718 595.105510 975.312385 555.859451 1124.365329 505.312967 C1148.897512 496.993668 1174.441848 488.242009 1200.124921 491.621130 C1225.807994 495.000250 1251.396983 514.775846 1251.833820 540.676577 C1247.527491 595.344998 1187.077100 624.674105 1135.436580 643.124981 C1007.410393 688.868038 878.288018 734.886359 743.649816 753.746009 C780.827765 808.565753 818.005713 863.385498 855.183661 918.205243 C872.304792 943.450747 889.755028 969.427243 896.793097 999.107779 C903.831166 1028.788314 898.303598 1063.440097 875.256564 1083.422660 C847.391739 1107.582414 802.894651 1102.316197 772.513284 1081.408908 C742.131918 1060.501618 722.566250 1027.616987 703.952442 995.778829 C670.522193 938.597753 637.091944 881.416677 603.661695 824.235602 C589.773386 800.480216 570.738342 773.654784 543.224918 774.118436 C383.145899 776.816163 211.449636 776.211081 79.338986 685.771353 C55.623332 669.536195 33.306638 650.181399 18.834694 625.350462 C-5.191279 584.126742 -4.590402 531.850194 11.393349 486.892856 C27.377100 441.935519 57.207330 403.233764 89.542230 368.146776 C253.973953 189.719951 485.818917 91.242932 712.972921 5.949430 C728.870539 -0.019930 749.755459 -4.740322 760.375497 8.510425 M885.872801 1056.572323 C882.975500 1060.075146 880.078198 1063.577969 877.180897 1067.080792 C882.918141 1064.912862 887.874652 1060.738350 890.986555 1055.453281 C890.212271 1053.474334 887.227211 1054.934848 885.872800 1056.572321 z"/></svg>